<svg width="115" height="139" viewBox="0 0 115 139" fill="none" xmlns="http://www.w3.org/2000/svg">
<path d="M50.3125 111.077H64.6875V104.177H71.875C73.9115 104.177 75.6197 103.515 76.9997 102.19C78.3797 100.866 79.0673 99.2283 79.0625 97.2781V76.5803C79.0625 74.6255 78.3725 72.9858 76.9925 71.6611C75.6125 70.3365 73.9067 69.6764 71.875 69.681H50.3125V62.7818H79.0625V48.9833H64.6875V42.084H50.3125V48.9833H43.125C41.0886 48.9833 39.3803 49.6456 38.0003 50.9703C36.6203 52.2949 35.9327 53.9323 35.9375 55.8825V76.5803C35.9375 78.5351 36.6275 80.1748 38.0075 81.4995C39.3875 82.8241 41.0933 83.4842 43.125 83.4796H64.6875V90.3788H35.9375V104.177H50.3125V111.077ZM14.375 138.674C10.4219 138.674 7.03657 137.321 4.21907 134.617C1.40157 131.912 -0.00477946 128.665 1.22029e-05 124.875V14.487C1.22029e-05 10.6924 1.40876 7.44286 4.22626 4.73835C7.04376 2.03384 10.4267 0.683889 14.375 0.688488H71.875L115 42.084V124.875C115 128.67 113.591 131.919 110.774 134.624C107.956 137.328 104.573 138.678 100.625 138.674H14.375ZM14.375 124.875H100.625V47.9484L65.7656 14.487H14.375V124.875Z" fill="#B287EE"/>
</svg>
