<svg width="207" height="207" viewBox="0 0 207 207" fill="none" xmlns="http://www.w3.org/2000/svg">
<path d="M103.5 189.75C55.8646 189.75 17.2505 151.136 17.2505 103.5C17.2505 55.8642 55.8646 17.2501 103.5 17.2501C151.136 17.2501 189.75 55.8642 189.75 103.5C189.75 151.136 151.136 189.75 103.5 189.75ZM103.5 172.5C121.8 172.5 139.351 165.23 152.291 152.29C165.231 139.35 172.5 121.8 172.5 103.5C172.5 85.2002 165.231 67.6498 152.291 54.7097C139.351 41.7697 121.8 34.5001 103.5 34.5001C85.2005 34.5001 67.6501 41.7697 54.7101 54.7097C41.7701 67.6498 34.5005 85.2002 34.5005 103.5C34.5005 121.8 41.7701 139.35 54.7101 152.29C67.6501 165.23 85.2005 172.5 103.5 172.5ZM73.313 120.75H120.75C121.894 120.75 122.991 120.296 123.8 119.487C124.609 118.678 125.063 117.581 125.063 116.438C125.063 115.294 124.609 114.197 123.8 113.388C122.991 112.579 121.894 112.125 120.75 112.125H86.2505C80.5317 112.125 75.0472 109.853 71.0035 105.81C66.9597 101.766 64.688 96.2813 64.688 90.5626C64.688 84.8439 66.9597 79.3594 71.0035 75.3156C75.0472 71.2719 80.5317 69.0001 86.2505 69.0001H94.8755V51.7501H112.125V69.0001H133.688V86.2501H86.2505C85.1067 86.2501 84.0098 86.7045 83.2011 87.5132C82.3923 88.322 81.938 89.4189 81.938 90.5626C81.938 91.7064 82.3923 92.8033 83.2011 93.612C84.0098 94.4208 85.1067 94.8751 86.2505 94.8751H120.75C126.469 94.8751 131.954 97.1469 135.997 101.191C140.041 105.234 142.313 110.719 142.313 116.438C142.313 122.156 140.041 127.641 135.997 131.685C131.954 135.728 126.469 138 120.75 138H112.125V155.25H94.8755V138H73.313V120.75Z" fill="url(#paint0_linear_562_3022)"/>
<defs>
<linearGradient id="paint0_linear_562_3022" x1="103.5" y1="17.2501" x2="103.5" y2="189.75" gradientUnits="userSpaceOnUse">
<stop stop-color="#B287EE"/>
<stop offset="1" stop-color="#B287EE" stop-opacity="0.42"/>
</linearGradient>
</defs>
</svg>
