<svg width="23" height="23" viewBox="0 0 23 23" fill="none" xmlns="http://www.w3.org/2000/svg">
<path d="M16.067 9.0421C15.9825 8.9574 15.8821 8.8902 15.7716 8.84435C15.6611 8.7985 15.5426 8.7749 15.4229 8.7749C15.3032 8.7749 15.1848 8.7985 15.0742 8.84435C14.9637 8.8902 14.8633 8.9574 14.7788 9.0421L11.2337 12.5872L7.68861 9.0421C7.51777 8.87126 7.28607 8.77529 7.04447 8.77529C6.80287 8.77529 6.57116 8.87126 6.40032 9.0421C6.22949 9.21294 6.13351 9.44465 6.13351 9.68625C6.13351 9.92785 6.22949 10.1596 6.40032 10.3304L10.5941 14.5242C10.6786 14.6089 10.779 14.6761 10.8896 14.7219C11.0001 14.7678 11.1186 14.7914 11.2383 14.7914C11.3579 14.7914 11.4764 14.7678 11.5869 14.7219C11.6975 14.6761 11.7979 14.6089 11.8824 14.5242L16.0762 10.3304C16.4234 9.98319 16.4234 9.39844 16.067 9.0421Z" fill="#707070"/>
</svg>
