<svg width="24" height="25" viewBox="0 0 24 25" fill="none" xmlns="http://www.w3.org/2000/svg">
<g opacity="0.5" clip-path="url(#clip0_537_5466)">
<path d="M14.829 7.03784C14.091 7.00384 13.869 6.99784 12 6.99784C10.131 6.99784 9.91 7.00484 9.172 7.03784C7.273 7.12484 6.389 8.02384 6.302 9.90784C6.269 10.6458 6.261 10.8668 6.261 12.7358C6.261 14.6048 6.269 14.8258 6.302 15.5648C6.389 17.4438 7.269 18.3478 9.172 18.4348C9.909 18.4678 10.131 18.4758 12 18.4758C13.87 18.4758 14.091 18.4688 14.829 18.4348C16.728 18.3488 17.611 17.4468 17.699 15.5648C17.732 14.8268 17.739 14.6048 17.739 12.7358C17.739 10.8668 17.732 10.6458 17.699 9.90784C17.611 8.02484 16.726 7.12484 14.829 7.03784ZM12 16.3308C10.015 16.3308 8.405 14.7218 8.405 12.7358C8.405 10.7508 10.015 9.14184 12 9.14184C13.985 9.14184 15.595 10.7508 15.595 12.7358C15.595 14.7208 13.985 16.3308 12 16.3308ZM15.737 9.83984C15.273 9.83984 14.897 9.46384 14.897 8.99984C14.897 8.53584 15.273 8.15984 15.737 8.15984C16.201 8.15984 16.577 8.53584 16.577 8.99984C16.577 9.46284 16.201 9.83984 15.737 9.83984ZM14.333 12.7358C14.333 14.0248 13.288 15.0688 12 15.0688C10.712 15.0688 9.667 14.0248 9.667 12.7358C9.667 11.4468 10.712 10.4028 12 10.4028C13.288 10.4028 14.333 11.4468 14.333 12.7358ZM12 0.73584C5.373 0.73584 0 6.10884 0 12.7358C0 19.3628 5.373 24.7358 12 24.7358C18.627 24.7358 24 19.3628 24 12.7358C24 6.10884 18.627 0.73584 12 0.73584ZM18.958 15.6218C18.843 18.1668 17.426 19.5768 14.887 19.6938C14.14 19.7278 13.901 19.7358 12 19.7358C10.099 19.7358 9.861 19.7278 9.114 19.6938C6.57 19.5768 5.159 18.1648 5.042 15.6218C5.008 14.8758 5 14.6368 5 12.7358C5 10.8348 5.008 10.5968 5.042 9.84984C5.159 7.30584 6.571 5.89484 9.114 5.77884C9.861 5.74384 10.099 5.73584 12 5.73584C13.901 5.73584 14.14 5.74384 14.887 5.77884C17.432 5.89584 18.844 7.31084 18.958 9.84984C18.992 10.5968 19 10.8348 19 12.7358C19 14.6368 18.992 14.8758 18.958 15.6218Z" fill="#CCD1FF"/>
</g>
<defs>
<clipPath id="clip0_537_5466">
<rect width="24" height="24" fill="white" transform="translate(0 0.73584)"/>
</clipPath>
</defs>
</svg>
