<svg width="24" height="25" viewBox="0 0 24 25" fill="none" xmlns="http://www.w3.org/2000/svg">
<g opacity="0.5" clip-path="url(#clip0_537_5462)">
<path d="M12 0.73584C5.373 0.73584 0 6.10884 0 12.7358C0 19.3628 5.373 24.7358 12 24.7358C18.627 24.7358 24 19.3628 24 12.7358C24 6.10884 18.627 0.73584 12 0.73584ZM10 16.7358H8V10.7358H10V16.7358ZM9 9.84484C8.393 9.84484 7.9 9.34884 7.9 8.73584C7.9 8.12384 8.392 7.62684 9 7.62684C9.608 7.62684 10.1 8.12384 10.1 8.73584C10.1 9.34884 9.607 9.84484 9 9.84484ZM17 16.7358H15.002V13.8748C15.002 11.9938 13 12.1528 13 13.8748V16.7358H11V10.7358H13V11.8288C13.872 10.2128 17 10.0928 17 13.3768V16.7358Z" fill="#CCD1FF"/>
</g>
<defs>
<clipPath id="clip0_537_5462">
<rect width="24" height="24" fill="white" transform="translate(0 0.73584)"/>
</clipPath>
</defs>
</svg>
