<svg width="11" height="7" viewBox="0 0 11 7" fill="none" xmlns="http://www.w3.org/2000/svg">
<path d="M10.067 1.0421C9.98252 0.957401 9.88211 0.890202 9.77158 0.844353C9.66105 0.798503 9.54256 0.774902 9.4229 0.774902C9.30324 0.774902 9.18475 0.798503 9.07422 0.844353C8.96369 0.890202 8.86329 0.957401 8.77876 1.0421L5.23369 4.58717L1.68861 1.0421C1.51777 0.871265 1.28607 0.775289 1.04447 0.775289C0.802869 0.775289 0.571162 0.871265 0.400325 1.0421C0.229487 1.21294 0.133513 1.44465 0.133513 1.68625C0.133513 1.92785 0.229487 2.15955 0.400325 2.33039L4.59411 6.52417C4.67864 6.60888 4.77904 6.67607 4.88957 6.72192C5.0001 6.76777 5.11859 6.79137 5.23825 6.79137C5.35792 6.79137 5.47641 6.76777 5.58694 6.72192C5.69747 6.67607 5.79787 6.60888 5.8824 6.52417L10.0762 2.33039C10.4234 1.98319 10.4234 1.39844 10.067 1.0421Z" fill="#707070"/>
</svg>
