<svg width="92" height="83" viewBox="0 0 92 83" fill="none" xmlns="http://www.w3.org/2000/svg">
<path d="M77.9245 69.8398C86.3449 62.1773 91.0754 51.7846 91.0754 40.9481C91.0754 30.1117 86.3449 19.719 77.9245 12.0564C69.5041 4.39389 58.0836 0.0891114 46.1754 0.0891113C34.2672 0.0891112 22.8467 4.39389 14.4263 12.0564C14.2702 12.1359 14.1296 12.2382 14.0102 12.3594L13.6773 12.738C5.25689 20.4006 0.526367 30.7932 0.526367 41.6297C0.526367 52.4662 5.25689 62.8589 13.6773 70.5214C22.0977 78.184 33.5182 82.4888 45.4264 82.4888C57.3346 82.4888 68.7551 78.184 77.1755 70.5214L77.5916 70.2185L77.9245 69.8398ZM80.7541 41.2889C80.7631 48.1608 78.3088 54.8479 73.7634 60.3355L24.8706 15.8052C30.0666 12.2699 36.2412 10.1204 42.7033 9.5972C49.1655 9.074 55.6602 10.1978 61.4603 12.8428C67.2605 15.4877 72.1373 19.5495 75.5448 24.5734C78.9523 29.5974 80.756 35.3851 80.7541 41.2889ZM10.8477 41.2889C10.8295 34.4157 13.2848 27.7261 17.8384 22.2424L66.7312 66.7348C60.7051 70.8786 53.3539 73.1129 45.8009 73.0963C36.5341 73.0863 27.6501 69.7319 21.0974 63.7691C14.5448 57.8062 10.8588 49.7217 10.8477 41.2889Z" fill="#00676F"/>
</svg>
