<svg width="91" height="92" viewBox="0 0 91 92" fill="none" xmlns="http://www.w3.org/2000/svg">
<g clip-path="url(#clip0_562_4622)">
<path d="M90.8513 23.577V91.4888H0.302246V23.577H23.1606C23.1016 23.1054 23.0574 22.6337 23.0279 22.1621C22.9985 21.6905 22.969 21.2189 22.9395 20.7473C22.9395 18.0061 23.4553 15.4417 24.487 13.0542C25.5186 10.6666 26.9335 8.55914 28.7315 6.73165C30.5295 4.90417 32.6222 3.48934 35.0098 2.48717C37.3973 1.485 39.9764 0.969173 42.7471 0.939697C45.4883 0.939697 48.0527 1.45552 50.4403 2.48717C52.8278 3.51881 54.9353 4.93364 56.7628 6.73165C58.5903 8.52967 60.0051 10.6224 61.0073 13.01C62.0094 15.3975 62.5252 17.9766 62.5547 20.7473C62.5547 21.2189 62.54 21.6905 62.5105 22.1621C62.481 22.6337 62.4221 23.1054 62.3337 23.577H90.8513ZM42.7471 6.59901C40.8017 6.59901 38.9742 6.96746 37.2647 7.70435C35.5551 8.44124 34.0518 9.45815 32.7549 10.7551C31.458 12.052 30.4411 13.5553 29.7042 15.2648C28.9673 16.9744 28.5988 18.8019 28.5988 20.7473C28.5988 22.6927 28.9673 24.5202 29.7042 26.2298C30.4411 27.9394 31.4432 29.4426 32.7107 30.7395C33.9781 32.0365 35.4814 33.0534 37.2204 33.7903C38.9595 34.5271 40.8017 34.8956 42.7471 34.8956C44.6925 34.8956 46.52 34.5271 48.2296 33.7903C49.9392 33.0534 51.4277 32.0512 52.6951 30.7837C53.9626 29.5163 54.9795 28.013 55.7459 26.274C56.5122 24.5349 56.8954 22.6927 56.8954 20.7473C56.8954 18.8019 56.527 16.9744 55.7901 15.2648C55.0532 13.5553 54.0363 12.0667 52.7393 10.7993C51.4424 9.53184 49.9392 8.51493 48.2296 7.74856C46.52 6.9822 44.6925 6.59901 42.7471 6.59901ZM85.192 29.2363H60.6535C59.9167 30.769 59.0029 32.1986 57.9123 33.525C56.8217 34.8514 55.569 35.9862 54.1542 36.9294C57.1902 38.1084 59.9314 39.6706 62.3779 41.616C64.8243 43.5614 66.8876 45.8016 68.5677 48.3365C70.2479 50.8714 71.5595 53.6421 72.5027 56.6486C73.446 59.6551 73.9028 62.7795 73.8734 66.0218V68.8515H68.214V66.0218C68.214 62.3963 67.5656 59.0361 66.2686 55.9412C64.9717 52.8462 63.1884 50.1492 60.9188 47.8501C58.6492 45.551 55.9669 43.7677 52.872 42.5003C49.7771 41.2328 46.4021 40.5844 42.7471 40.5549C39.4753 40.5549 36.3804 41.1149 33.4623 42.235C30.5442 43.3551 27.9504 44.932 25.6807 46.9659C23.4111 48.9997 21.5542 51.3872 20.1099 54.1284C18.6655 56.8697 17.7665 59.8909 17.4128 63.1922H46.0631L35.894 53.0231L39.9175 49.0439L56.8954 66.0218L39.9175 82.9998L35.894 79.0206L46.0631 68.8515H11.6209V66.0218C11.6209 62.7795 12.0778 59.6698 12.9915 56.6928C13.9052 53.7158 15.2316 50.9598 16.9707 48.4249C18.7098 45.89 20.7878 43.6498 23.2048 41.7045C25.6218 39.7591 28.3483 38.1821 31.3843 36.9736C28.4957 34.9398 26.3145 32.3607 24.8407 29.2363H5.96156V85.8294H85.192V29.2363Z" fill="#4D2512"/>
</g>
<defs>
<clipPath id="clip0_562_4622">
<rect width="90.5491" height="90.5491" fill="white" transform="translate(0.302246 0.939697)"/>
</clipPath>
</defs>
</svg>
