<svg width="166" height="166" viewBox="0 0 166 166" fill="none" xmlns="http://www.w3.org/2000/svg">
<path d="M145.25 62.25C150.98 62.25 155.625 57.6049 155.625 51.875C155.625 46.145 150.98 41.5 145.25 41.5C139.52 41.5 134.875 46.145 134.875 51.875C134.875 57.6049 139.52 62.25 145.25 62.25Z" fill="#B287EE"/>
<path d="M93.3749 150.437H57.0625V140.062H93.3749C119.12 140.062 140.062 119.12 140.062 93.375V72.625H150.437V93.375C150.437 124.837 124.837 150.437 93.3749 150.437Z" fill="#B287EE"/>
<path d="M83 108.937C68.698 108.937 57.0625 97.3019 57.0625 83C57.0625 68.698 68.698 57.0625 83 57.0625C97.3019 57.0625 108.937 68.698 108.937 83C108.937 97.3019 97.3019 108.937 83 108.937ZM83 67.4375C74.4198 67.4375 67.4375 74.4198 67.4375 83C67.4375 91.5801 74.4198 98.5624 83 98.5624C91.5801 98.5624 98.5624 91.5801 98.5624 83C98.5624 74.4198 91.5801 67.4375 83 67.4375Z" fill="#293CE2"/>
<path d="M20.75 124.5C26.4799 124.5 31.125 119.855 31.125 114.125C31.125 108.395 26.4799 103.75 20.75 103.75C15.02 103.75 10.375 108.395 10.375 114.125C10.375 119.855 15.02 124.5 20.75 124.5Z" fill="#B287EE"/>
<path d="M25.9375 93.3749H15.5625V72.6249C15.5625 41.1628 41.1628 15.5625 72.6249 15.5625H108.937V25.9375H72.6249C46.8794 25.9375 25.9375 46.8794 25.9375 72.6249V93.3749Z" fill="#B287EE"/>
</svg>
