<svg width="24" height="25" viewBox="0 0 24 25" fill="none" xmlns="http://www.w3.org/2000/svg">
<g opacity="0.5" clip-path="url(#clip0_537_5464)">
<path d="M12 0.73584C5.373 0.73584 0 6.10884 0 12.7358C0 19.3628 5.373 24.7358 12 24.7358C18.627 24.7358 24 19.3628 24 12.7358C24 6.10884 18.627 0.73584 12 0.73584ZM18.066 10.3808C18.249 14.4208 15.236 18.9248 9.902 18.9248C8.28 18.9248 6.771 18.4488 5.5 17.6338C7.024 17.8138 8.545 17.3898 9.752 16.4448C8.496 16.4218 7.435 15.5908 7.068 14.4498C7.519 14.5358 7.963 14.5108 8.366 14.4008C6.985 14.1228 6.031 12.8788 6.062 11.5478C6.45 11.7628 6.892 11.8918 7.363 11.9068C6.084 11.0518 5.722 9.36284 6.474 8.07184C7.89 9.80984 10.007 10.9528 12.394 11.0728C11.975 9.27684 13.338 7.54584 15.193 7.54584C16.018 7.54584 16.765 7.89484 17.289 8.45284C17.943 8.32484 18.559 8.08484 19.113 7.75584C18.898 8.42684 18.443 8.98884 17.85 9.34484C18.431 9.27484 18.985 9.12084 19.499 8.89184C19.115 9.46984 18.629 9.97584 18.066 10.3808Z" fill="#CCD1FF"/>
</g>
<defs>
<clipPath id="clip0_537_5464">
<rect width="24" height="24" fill="white" transform="translate(0 0.73584)"/>
</clipPath>
</defs>
</svg>
