<svg width="92" height="91" viewBox="0 0 92 91" fill="none" xmlns="http://www.w3.org/2000/svg">
<g clip-path="url(#clip0_562_4643)">
<path d="M12.8732 15.1069C9.46405 15.1069 6.7023 17.8098 6.7023 21.1465V69.4363C6.7023 72.773 9.46405 75.4759 12.8732 75.4759H78.7296C82.1387 75.4759 84.9005 72.773 84.9005 69.4363V21.1465C84.9005 17.8098 82.1387 15.1069 78.7296 15.1069H12.8732ZM78.7296 9.07178C85.5479 9.07178 91.0759 14.4776 91.0759 21.1465V69.4363C91.0759 76.1052 85.5479 81.511 78.7296 81.511H12.8732C6.05488 81.511 0.526855 76.1052 0.526855 69.4363V21.1465C0.526855 14.4776 6.05488 9.07178 12.8732 9.07178H78.7296ZM37.5026 59.4759H18.6367C18.2356 59.4711 17.8374 59.5455 17.4651 59.6947C17.0927 59.8439 16.7535 60.0651 16.4667 60.3456C16.1799 60.6261 15.9512 60.9604 15.7937 61.3293C15.6363 61.6982 15.5531 62.0946 15.5489 62.4957C15.5489 64.1618 16.9298 65.5155 18.6367 65.5155H37.5026C37.9033 65.5197 38.3009 65.4449 38.6728 65.2954C39.0446 65.1459 39.3833 64.9246 39.6696 64.6442C39.9559 64.3638 40.1842 64.0297 40.3414 63.6611C40.4986 63.2925 40.5816 62.8965 40.5858 62.4957C40.5816 62.095 40.4986 61.699 40.3414 61.3303C40.1842 60.9617 39.9559 60.6276 39.6696 60.3472C39.3833 60.0668 39.0446 59.8455 38.6728 59.696C38.3009 59.5465 37.9033 59.4717 37.5026 59.4759ZM62.7793 24.1618C55.8795 24.1618 50.2609 29.554 50.2609 36.2365C50.2609 39.7362 51.8003 42.8828 54.2632 45.0877C49.5999 47.8404 46.4896 52.7979 46.4896 58.4618C46.4896 60.0781 46.7431 61.6672 47.2366 63.1839C47.7572 64.7685 49.4958 65.6468 51.1166 65.1398C51.4991 65.0252 51.855 64.8355 52.1634 64.5819C52.4718 64.3282 52.7266 64.0157 52.9129 63.6625C53.0992 63.3093 53.2133 62.9225 53.2485 62.5247C53.2836 62.1269 53.2392 61.7262 53.1177 61.3457C52.8151 60.4144 52.6623 59.441 52.665 58.4618C52.665 53.142 57.1789 48.8047 62.7793 48.8047C68.3798 48.8047 72.8982 53.142 72.8982 58.4618C72.8982 59.245 72.8031 60.0102 72.613 60.7527C72.5175 61.1407 72.5002 61.5439 72.5619 61.9387C72.6237 62.3335 72.7633 62.7121 72.9727 63.0525C73.1821 63.3929 73.457 63.6883 73.7815 63.9215C74.1061 64.1546 74.4737 64.321 74.8631 64.4108C75.6505 64.6084 76.484 64.4883 77.1836 64.0767C77.8833 63.665 78.393 62.9947 78.6028 62.2105C78.9152 60.9881 79.0691 59.734 79.0691 58.4618C79.0691 52.7979 75.9587 47.8404 71.2955 45.0786C73.7584 42.8828 75.2977 39.7362 75.2977 36.2365C75.2977 29.554 69.6837 24.1618 62.7793 24.1618ZM37.5026 43.6298H18.6367C18.2356 43.625 17.8374 43.6994 17.4651 43.8486C17.0927 43.9979 16.7535 44.219 16.4667 44.4995C16.1799 44.78 15.9512 45.1143 15.7937 45.4832C15.6363 45.8521 15.5531 46.2485 15.5489 46.6496C15.5489 48.3157 16.9298 49.6694 18.6367 49.6694H37.5026C37.9033 49.6736 38.3009 49.5988 38.6728 49.4493C39.0446 49.2998 39.3833 49.0786 39.6696 48.7981C39.9559 48.5177 40.1842 48.1837 40.3414 47.815C40.4986 47.4464 40.5816 47.0504 40.5858 46.6496C40.5816 46.2489 40.4986 45.8529 40.3414 45.4843C40.1842 45.1156 39.9559 44.7816 39.6696 44.5011C39.3833 44.2207 39.0446 43.9994 38.6728 43.8499C38.3009 43.7004 37.9033 43.6256 37.5026 43.6298ZM62.7793 30.2014C66.2972 30.2014 69.1268 32.9179 69.1268 36.2365C69.1268 39.5596 66.2972 42.2716 62.7793 42.2716C59.2615 42.2716 56.4318 39.5551 56.4318 36.2365C56.4318 32.9133 59.2615 30.2014 62.7793 30.2014ZM37.5026 27.7837H18.6367C18.2356 27.779 17.8374 27.8533 17.4651 28.0025C17.0927 28.1518 16.7535 28.3729 16.4667 28.6534C16.1799 28.9339 15.9512 29.2682 15.7937 29.6371C15.6363 30.0061 15.5531 30.4024 15.5489 30.8036C15.5489 32.4697 16.9298 33.8234 18.6367 33.8234H37.5026C37.9033 33.8275 38.3009 33.7528 38.6728 33.6033C39.0446 33.4538 39.3833 33.2325 39.6696 32.9521C39.9559 32.6716 40.1842 32.3376 40.3414 31.9689C40.4986 31.6003 40.5816 31.2043 40.5858 30.8036C40.5816 30.4028 40.4986 30.0068 40.3414 29.6382C40.1842 29.2695 39.9559 28.9355 39.6696 28.655C39.3833 28.3746 39.0446 28.1534 38.6728 28.0039C38.3009 27.8544 37.9033 27.7796 37.5026 27.7837Z" fill="#DCE3FF"/>
</g>
<defs>
<clipPath id="clip0_562_4643">
<rect width="90.5491" height="90.5491" fill="white" transform="translate(0.526855 0.0168457)"/>
</clipPath>
</defs>
</svg>
