<svg width="188" height="188" viewBox="0 0 188 188" fill="none" xmlns="http://www.w3.org/2000/svg">
<path d="M125.333 105.75C128.728 105.75 131.535 104.64 133.754 102.421C135.974 100.201 137.083 97.3945 137.083 94C137.083 90.6056 135.974 87.7986 133.754 85.5792C131.535 83.3597 128.728 82.25 125.333 82.25C121.939 82.25 119.132 83.3597 116.913 85.5792C114.693 87.7986 113.583 90.6056 113.583 94C113.583 97.3945 114.693 100.201 116.913 102.421C119.132 104.64 121.939 105.75 125.333 105.75ZM39.1667 164.5C34.8583 164.5 31.1688 162.965 28.0982 159.894C25.0275 156.823 23.4948 153.136 23.5 148.833V39.1667C23.5 34.8583 25.0353 31.1688 28.106 28.0982C31.1767 25.0275 34.8636 23.4948 39.1667 23.5H148.833C153.142 23.5 156.831 25.0353 159.902 28.106C162.973 31.1767 164.505 34.8636 164.5 39.1667V58.75H148.833V39.1667H39.1667V148.833H148.833V129.25H164.5V148.833C164.5 153.142 162.965 156.831 159.894 159.902C156.823 162.973 153.136 164.505 148.833 164.5H39.1667ZM101.833 133.167C97.525 133.167 93.8355 131.631 90.7648 128.561C87.6942 125.49 86.1615 121.803 86.1667 117.5V70.5C86.1667 66.1917 87.702 62.5022 90.7727 59.4315C93.8434 56.3608 97.5302 54.8281 101.833 54.8333H156.667C160.975 54.8333 164.665 56.3687 167.735 59.4393C170.806 62.51 172.339 66.1969 172.333 70.5V117.5C172.333 121.808 170.798 125.498 167.727 128.569C164.657 131.639 160.97 133.172 156.667 133.167H101.833ZM156.667 117.5V70.5H101.833V117.5H156.667Z" fill="url(#paint0_linear_562_3013)"/>
<defs>
<linearGradient id="paint0_linear_562_3013" x1="97.9167" y1="23.5" x2="97.9167" y2="164.5" gradientUnits="userSpaceOnUse">
<stop stop-color="#B287EE"/>
<stop offset="1" stop-color="#B287EE" stop-opacity="0.44"/>
</linearGradient>
</defs>
</svg>
